<svg width="157" height="157" viewBox="0 0 157 157" fill="none" xmlns="http://www.w3.org/2000/svg">
<g filter="url(#filter0_d_453_1920)">
<path fill-rule="evenodd" clip-rule="evenodd" d="M74.6033 36.3433C75.8161 32.5496 81.1839 32.5496 82.3966 36.3433L91.4407 64.635C91.531 64.9175 91.7936 65.1092 92.0902 65.1092H121.395C125.342 65.1092 127 70.1464 123.825 72.491L100.051 90.0477C99.8155 90.2213 99.7172 90.5254 99.8062 90.8037L108.88 119.188C110.088 122.969 105.746 126.082 102.553 123.724L78.905 106.261C78.6643 106.083 78.3357 106.083 78.095 106.261L54.447 123.724C51.2541 126.082 46.9116 122.969 48.1202 119.188L57.1938 90.8037C57.2828 90.5254 57.1845 90.2213 56.9494 90.0477L33.175 72.491C30 70.1464 31.6583 65.1092 35.6051 65.1092H64.9098C65.2064 65.1092 65.4689 64.9175 65.5592 64.635L74.6033 36.3433ZM78.5 40.5745L70.3218 66.1575C69.5693 68.5116 67.3813 70.1092 64.9098 70.1092H38.3665L59.9196 86.0255C61.8787 87.4722 62.6979 90.0065 61.9564 92.3262L53.7391 118.032L75.1247 102.239C77.131 100.757 79.869 100.757 81.8753 102.239L103.261 118.032L95.0436 92.3262C94.302 90.0065 95.1213 87.4722 97.0803 86.0255L118.633 70.1092H92.0902C89.6187 70.1092 87.4307 68.5116 86.6782 66.1575L78.5 40.5745Z" fill="#212121"/>
</g>
<defs>
<filter id="filter0_d_453_1920" x="5.50635" y="7.49805" width="145.987" height="143.045" filterUnits="userSpaceOnUse" color-interpolation-filters="sRGB">
<feFlood flood-opacity="0" result="BackgroundImageFix"/>
<feColorMatrix in="SourceAlpha" type="matrix" values="0 0 0 0 0 0 0 0 0 0 0 0 0 0 0 0 0 0 127 0" result="hardAlpha"/>
<feOffset/>
<feGaussianBlur stdDeviation="13"/>
<feComposite in2="hardAlpha" operator="out"/>
<feColorMatrix type="matrix" values="0 0 0 0 0.2 0 0 0 0 0.25098 0 0 0 0 0.945098 0 0 0 1 0"/>
<feBlend mode="normal" in2="BackgroundImageFix" result="effect1_dropShadow_453_1920"/>
<feBlend mode="normal" in="SourceGraphic" in2="effect1_dropShadow_453_1920" result="shape"/>
</filter>
</defs>
</svg>
