<svg width="157" height="157" viewBox="0 0 157 157" fill="none" xmlns="http://www.w3.org/2000/svg">
<g filter="url(#filter0_d_371_1629)">
<path fill-rule="evenodd" clip-rule="evenodd" d="M36.2915 80.6923C33.2423 89.1023 33.8404 95.2023 36.9351 98.2949C39.0461 100.404 42.5555 101.351 47.2418 100.77C49.9418 91.0444 57.7465 78.4511 67.719 68.4717C77.8577 58.3259 90.7322 51.0199 100.572 48.4021C101.469 43.1262 100.545 39.2074 98.2614 36.9256C97.6387 36.3033 96.8942 35.7822 96.0337 35.3716C95.0184 35.0696 93.9522 34.7848 92.8325 34.5214L92.8515 34.4406C89.6596 33.9747 85.5494 34.5171 80.6584 36.2944C72.4599 39.2735 62.9551 45.4576 54.1987 54.2201C45.4424 62.9826 39.2649 72.4917 36.2915 80.6923ZM99.0621 54.0877C90.5726 56.9956 79.9045 63.3512 71.2557 72.006C62.6309 80.6368 55.8976 91.1493 52.899 99.4852C53.4351 99.3147 53.9816 99.1284 54.5381 98.9262C62.7367 95.9471 72.2415 89.7629 80.9978 81.0004C89.7542 72.2379 95.9317 62.7288 98.905 54.5282C98.9585 54.3807 99.0109 54.2338 99.0621 54.0877ZM103.606 56.2325C105.823 50.1181 106.634 44.0412 105.165 39.1296C109.793 41.6731 112.442 44.3203 113.874 45.7518L113.912 45.7898C119.432 51.3064 121.218 59.2625 118.849 68.7846C116.466 78.3604 109.891 89.3415 98.9621 100.278C87.999 111.249 77.4013 117.887 68.1178 120.228C58.9594 122.538 51.1117 120.686 45.0607 114.639C41.9083 111.489 39.5547 108.053 37.8823 104.759C42.9939 106.795 49.5982 106.041 56.2458 103.626C65.2744 100.345 75.3802 93.6955 84.5346 84.5347C93.689 75.3739 100.331 65.2634 103.606 56.2325ZM31.591 78.988C29.5073 84.7349 28.6648 90.4487 29.7911 95.1929L29.6715 95.2062C30.3708 101.5 33.9658 110.621 41.5264 118.176C48.9961 125.641 58.7294 127.753 69.3406 125.076C79.8267 122.431 91.1871 115.132 102.499 103.813C113.845 92.459 121.033 80.713 123.701 69.9919C126.382 59.2172 124.505 49.3064 117.446 42.2531C114.997 39.806 109.385 34.2302 97.917 30.7173C92.7279 28.3682 85.8627 29.0834 78.9508 31.595C69.9222 34.8757 59.8164 41.525 50.662 50.6858C41.5076 59.8466 34.8654 69.9571 31.591 78.988Z" fill="#3340F1"/>
</g>
<defs>
<filter id="filter0_d_371_1629" x="3.28931" y="3.28516" width="147.579" height="148.9" filterUnits="userSpaceOnUse" color-interpolation-filters="sRGB">
<feFlood flood-opacity="0" result="BackgroundImageFix"/>
<feColorMatrix in="SourceAlpha" type="matrix" values="0 0 0 0 0 0 0 0 0 0 0 0 0 0 0 0 0 0 127 0" result="hardAlpha"/>
<feOffset/>
<feGaussianBlur stdDeviation="13"/>
<feComposite in2="hardAlpha" operator="out"/>
<feColorMatrix type="matrix" values="0 0 0 0 0.2 0 0 0 0 0.25098 0 0 0 0 0.945098 0 0 0 1 0"/>
<feBlend mode="normal" in2="BackgroundImageFix" result="effect1_dropShadow_371_1629"/>
<feBlend mode="normal" in="SourceGraphic" in2="effect1_dropShadow_371_1629" result="shape"/>
</filter>
</defs>
</svg>
