<svg width="138" height="140" viewBox="0 0 138 140" fill="none" xmlns="http://www.w3.org/2000/svg">
<g filter="url(#filter0_d_453_2018)">
<path fill-rule="evenodd" clip-rule="evenodd" d="M60.078 43.3214C65.906 41.4464 72.193 41.5699 77.943 43.6721C78.6324 43.9242 79.1763 44.4666 79.4302 45.1554C79.6841 45.8442 79.6225 46.6098 79.2616 47.249C78.8407 47.9945 78.6237 48.8377 78.6321 49.6938C78.6406 50.5498 78.8744 51.3885 79.3099 52.1255C79.7454 52.8626 80.3673 53.4719 81.1131 53.8923C81.8588 54.3127 82.7022 54.5292 83.5582 54.5202L83.5845 54.5201H83.8345C84.5853 54.5201 85.2964 54.8575 85.7711 55.4391C86.2459 56.0208 86.4342 56.785 86.2839 57.5206C86.1738 58.0593 86.1836 58.6157 86.3124 59.1503C86.4413 59.6848 86.6862 60.1845 87.0297 60.6139C87.3732 61.0433 87.807 61.3919 88.3002 61.635C88.7861 61.8744 89.318 62.0058 89.8593 62.02C90.5978 62.0154 91.2736 61.806 91.4477 61.69C92.1292 61.2356 92.9901 61.1439 93.752 61.4445C94.5139 61.7451 95.0802 62.3998 95.2679 63.1971C96.6711 69.1563 96.0456 75.4133 93.4906 80.9768C90.9356 86.5404 86.5971 91.0922 81.1626 93.9112C75.728 96.7302 69.5082 97.6552 63.4885 96.5395C57.4689 95.4238 51.9936 92.3313 47.9303 87.752C43.8669 83.1727 41.4479 77.3684 41.0563 71.2587C40.6648 65.1491 42.3232 59.0835 45.7687 54.023C49.2143 48.9624 54.25 45.1963 60.078 43.3214ZM73.8372 47.6422C69.8147 46.6599 65.5817 46.8032 61.6093 48.0811C56.8409 49.6152 52.7208 52.6965 49.9017 56.837C47.0826 60.9774 45.7257 65.9402 46.0461 70.939C46.3664 75.9378 48.3457 80.6867 51.6702 84.4334C54.9948 88.1802 59.4745 90.7104 64.3997 91.6232C69.3249 92.536 74.4138 91.7793 78.8603 89.4728C83.3067 87.1664 86.8564 83.4421 88.9469 78.8901C90.6657 75.1474 91.3172 71.0211 90.8564 66.962C90.4919 67.0023 90.1459 67.0201 89.8345 67.0201C89.818 67.0201 89.8016 67.0199 89.7851 67.0196C88.5023 66.9942 87.2407 66.6871 86.0898 66.1199C84.939 65.5527 83.9269 64.7393 83.1254 63.7374C82.3238 62.7355 81.7525 61.5695 81.4517 60.3222C81.3674 59.9723 81.3049 59.6184 81.2643 59.2625C80.3556 59.0506 79.4776 58.7101 78.6579 58.248C77.1472 57.3965 75.8874 56.1621 75.0052 54.6692C74.123 53.1762 73.6495 51.4773 73.6324 49.7433C73.6254 49.0346 73.6946 48.3304 73.8372 47.6422Z" fill="#212121"/>
<path fill-rule="evenodd" clip-rule="evenodd" d="M69 65C66.2386 65 64 67.2386 64 70C64 72.7614 66.2386 75 69 75C71.7614 75 74 72.7614 74 70C74 67.2386 71.7614 65 69 65ZM59 70C59 64.4772 63.4772 60 69 60C74.5228 60 79 64.4772 79 70C79 75.5228 74.5228 80 69 80C63.4772 80 59 75.5228 59 70Z" fill="#212121"/>
<path fill-rule="evenodd" clip-rule="evenodd" d="M58.825 54.38C59.9958 55.1118 60.3518 56.6542 59.62 57.825L57.12 61.825C56.3882 62.9958 54.8458 63.3518 53.675 62.62C52.5042 61.8882 52.1482 60.3458 52.88 59.175L55.38 55.175C56.1118 54.0042 57.6542 53.6482 58.825 54.38ZM49.7639 72.882C50.3814 71.647 51.8831 71.1465 53.118 71.7639L57.118 73.7639C58.353 74.3814 58.8535 75.8831 58.2361 77.118C57.6186 78.353 56.1169 78.8535 54.882 78.2361L50.882 76.2361C49.647 75.6186 49.1465 74.1169 49.7639 72.882Z" fill="#212121"/>
<path fill-rule="evenodd" clip-rule="evenodd" d="M71.5801 83.1132C72.346 84.2621 72.0356 85.8142 70.8868 86.5801L66.3868 89.5801C65.2379 90.346 63.6858 90.0356 62.9199 88.8867C62.154 87.7379 62.4644 86.1858 63.6133 85.4199L68.1133 82.4199C69.2621 81.654 70.8142 81.9644 71.5801 83.1132Z" fill="#212121"/>
<path fill-rule="evenodd" clip-rule="evenodd" d="M78 75.5C78 74.1193 79.1193 73 80.5 73H84.5C85.8807 73 87 74.1193 87 75.5C87 76.8807 85.8807 78 84.5 78H80.5C79.1193 78 78 76.8807 78 75.5Z" fill="#212121"/>
</g>
<defs>
<filter id="filter0_d_453_2018" x="15" y="16" width="107" height="107" filterUnits="userSpaceOnUse" color-interpolation-filters="sRGB">
<feFlood flood-opacity="0" result="BackgroundImageFix"/>
<feColorMatrix in="SourceAlpha" type="matrix" values="0 0 0 0 0 0 0 0 0 0 0 0 0 0 0 0 0 0 127 0" result="hardAlpha"/>
<feOffset/>
<feGaussianBlur stdDeviation="13"/>
<feComposite in2="hardAlpha" operator="out"/>
<feColorMatrix type="matrix" values="0 0 0 0 0.2 0 0 0 0 0.25098 0 0 0 0 0.945098 0 0 0 1 0"/>
<feBlend mode="normal" in2="BackgroundImageFix" result="effect1_dropShadow_453_2018"/>
<feBlend mode="normal" in="SourceGraphic" in2="effect1_dropShadow_453_2018" result="shape"/>
</filter>
</defs>
</svg>
