<svg width="157" height="157" viewBox="0 0 157 157" fill="none" xmlns="http://www.w3.org/2000/svg">
<g filter="url(#filter0_d_453_1944)">
<path fill-rule="evenodd" clip-rule="evenodd" d="M97.1528 33.2846C99.0493 34.8541 99.5213 37.5705 98.2653 39.6878L82.1 66.9371H115.091C117.139 66.9371 118.98 68.186 119.737 70.089C120.494 71.9919 120.014 74.1641 118.525 75.5708L66.1364 125.089C64.3374 126.789 61.565 126.917 59.6169 125.39C57.6688 123.862 57.1315 121.14 58.3535 118.987L75.8692 88.1285H41.909C39.8304 88.1285 37.9685 86.8424 37.2328 84.8983C36.497 82.9542 37.0407 80.7577 38.5985 79.3814L90.6545 33.3897C92.4994 31.7597 95.2562 31.7152 97.1528 33.2846ZM84.4566 83.1285L62.7018 121.455L115.091 71.9371H73.3202L93.9651 37.1367L41.909 83.1285H84.4566Z" fill="#212121"/>
</g>
<defs>
<filter id="filter0_d_453_1944" x="10.9088" y="6.13672" width="135.182" height="146.318" filterUnits="userSpaceOnUse" color-interpolation-filters="sRGB">
<feFlood flood-opacity="0" result="BackgroundImageFix"/>
<feColorMatrix in="SourceAlpha" type="matrix" values="0 0 0 0 0 0 0 0 0 0 0 0 0 0 0 0 0 0 127 0" result="hardAlpha"/>
<feOffset/>
<feGaussianBlur stdDeviation="13"/>
<feComposite in2="hardAlpha" operator="out"/>
<feColorMatrix type="matrix" values="0 0 0 0 0.2 0 0 0 0 0.25098 0 0 0 0 0.945098 0 0 0 1 0"/>
<feBlend mode="normal" in2="BackgroundImageFix" result="effect1_dropShadow_453_1944"/>
<feBlend mode="normal" in="SourceGraphic" in2="effect1_dropShadow_453_1944" result="shape"/>
</filter>
</defs>
</svg>
