<svg width="138" height="140" viewBox="0 0 138 140" fill="none" xmlns="http://www.w3.org/2000/svg">
<g filter="url(#filter0_d_453_1937)">
<path fill-rule="evenodd" clip-rule="evenodd" d="M50.0491 67.1443C45.9207 70.0195 43.6943 73.748 43.6943 77.5785C43.6943 81.409 45.9207 85.1376 50.0491 88.0127C54.1688 90.8818 59.9945 92.736 66.5486 92.736C73.1027 92.736 78.9284 90.8818 83.0481 88.0127C87.1766 85.1376 89.403 81.409 89.403 77.5785C89.403 73.748 87.1766 70.0195 83.0481 67.1443C78.9284 64.2752 73.1027 62.421 66.5486 62.421C59.9945 62.421 54.1688 64.2752 50.0491 67.1443ZM47.1917 63.0413C52.2485 59.5196 59.0999 57.421 66.5486 57.421C73.9973 57.421 80.8488 59.5196 85.9056 63.0413C90.9536 66.5569 94.403 71.657 94.403 77.5785C94.403 83.5 90.9536 88.6002 85.9056 92.1158C80.8488 95.6374 73.9973 97.736 66.5486 97.736C59.0999 97.736 52.2485 95.6374 47.1917 92.1158C42.1437 88.6002 38.6943 83.5 38.6943 77.5785C38.6943 71.657 42.1437 66.5569 47.1917 63.0413Z" fill="#3340F1"/>
<path fill-rule="evenodd" clip-rule="evenodd" d="M44.8527 64.8012C42.5544 64.3042 39.7414 65.9922 39.0217 69.3204C38.4178 72.1128 39.6687 74.5434 41.4498 75.4773L39.1278 79.9055C35.0972 77.7919 33.1204 72.9536 34.1346 68.2636C35.3176 62.7934 40.387 58.7199 45.9095 59.9142C47.5694 60.2731 49.0249 61.0746 50.1969 62.1675L46.7869 65.8242C46.2379 65.3122 45.5845 64.9595 44.8527 64.8012Z" fill="#3340F1"/>
<path fill-rule="evenodd" clip-rule="evenodd" d="M89.5511 64.8012C91.8494 64.3042 94.6624 65.9922 95.3821 69.3205C96.1018 72.6487 94.2376 75.3481 91.9393 75.8451L92.9961 80.7322C98.5187 79.5379 101.452 73.7339 100.269 68.2636C99.0862 62.7934 94.0168 58.7199 88.4943 59.9142C86.2555 60.3983 84.4028 61.6821 83.1048 63.387L87.0831 66.4158C87.7229 65.5753 88.5746 65.0124 89.5511 64.8012Z" fill="#3340F1"/>
<path fill-rule="evenodd" clip-rule="evenodd" d="M68.7218 45.9503C69.1474 44.7586 70.3963 44.0729 71.6302 44.3533L81.5909 46.6171L80.4828 51.4927L72.6847 49.7204L68.903 60.3091L64.1943 58.6274L68.7218 45.9503Z" fill="#3340F1"/>
<path fill-rule="evenodd" clip-rule="evenodd" d="M86.4699 47.0273C84.3499 47.0273 82.6313 48.7459 82.6313 50.8659C82.6313 52.9859 84.3499 54.7045 86.4699 54.7045C88.5899 54.7045 90.3085 52.9859 90.3085 50.8659C90.3085 48.7459 88.5899 47.0273 86.4699 47.0273ZM77.6313 50.8659C77.6313 45.9845 81.5885 42.0273 86.4699 42.0273C91.3513 42.0273 95.3085 45.9845 95.3085 50.8659C95.3085 55.7473 91.3513 59.7045 86.4699 59.7045C81.5885 59.7045 77.6313 55.7473 77.6313 50.8659Z" fill="#3340F1"/>
<path fill-rule="evenodd" clip-rule="evenodd" d="M54.9316 83.9332C55.6729 82.7683 57.2181 82.4249 58.3829 83.1662C61.2905 85.0165 68.6884 87.4846 75.1225 83.1952C76.2713 82.4294 77.8235 82.7398 78.5894 83.8886C79.3553 85.0374 79.0448 86.5896 77.896 87.3555C69.1175 93.2078 59.4315 89.76 55.6986 87.3845C54.5337 86.6433 54.1903 85.098 54.9316 83.9332Z" fill="#3340F1"/>
</g>
<defs>
<filter id="filter0_d_453_1937" x="7.87195" y="16.0273" width="118.657" height="107.709" filterUnits="userSpaceOnUse" color-interpolation-filters="sRGB">
<feFlood flood-opacity="0" result="BackgroundImageFix"/>
<feColorMatrix in="SourceAlpha" type="matrix" values="0 0 0 0 0 0 0 0 0 0 0 0 0 0 0 0 0 0 127 0" result="hardAlpha"/>
<feOffset/>
<feGaussianBlur stdDeviation="13"/>
<feComposite in2="hardAlpha" operator="out"/>
<feColorMatrix type="matrix" values="0 0 0 0 0.2 0 0 0 0 0.25098 0 0 0 0 0.945098 0 0 0 1 0"/>
<feBlend mode="normal" in2="BackgroundImageFix" result="effect1_dropShadow_453_1937"/>
<feBlend mode="normal" in="SourceGraphic" in2="effect1_dropShadow_453_1937" result="shape"/>
</filter>
</defs>
</svg>
