<svg width="160" height="160" viewBox="0 0 160 160" fill="none" xmlns="http://www.w3.org/2000/svg">
<g filter="url(#filter0_d_453_1922)">
<path fill-rule="evenodd" clip-rule="evenodd" d="M77.1587 71.9433C76.844 72.9191 75.9358 73.5805 74.9105 73.5805H69.4161C68.2741 73.5805 67.797 75.04 68.7184 75.7146L73.1866 78.9858C74.0082 79.5873 74.3519 80.6476 74.0394 81.6168L72.3353 86.9018C71.9839 87.9915 73.2332 88.8936 74.1571 88.2172L78.5812 84.9783C79.412 84.3701 80.5411 84.3701 81.372 84.9783L85.7961 88.2172C86.72 88.8936 87.9693 87.9915 87.6179 86.9018L85.9137 81.6168C85.6012 80.6476 85.9449 79.5873 86.7666 78.9858L91.2348 75.7146C92.1562 75.04 91.6791 73.5805 90.5371 73.5805H85.0427C84.0174 73.5805 83.1092 72.9191 82.7945 71.9433L81.1007 66.6904C80.7487 65.5989 79.2044 65.5989 78.8525 66.6904L77.1587 71.9433ZM79.9766 76.5605C79.5096 77.0031 78.9864 77.3829 78.4208 77.6899C78.7104 78.2899 78.9175 78.9268 79.0362 79.5823C79.6604 79.5021 80.2928 79.5021 80.917 79.5823C81.0357 78.9268 81.2427 78.2899 81.5323 77.6899C80.9668 77.3829 80.4436 77.0031 79.9766 76.5605Z" fill="#212121"/>
<path fill-rule="evenodd" clip-rule="evenodd" d="M55.4997 45.2483C56.2287 44.1919 57.6393 43.8592 58.7635 44.4784C61.4752 45.9721 69.7398 48.3586 78.9868 44.3725C79.6184 44.1002 80.3344 44.1002 80.9661 44.3725C90.2131 48.3586 98.4777 45.9721 101.189 44.4784C102.314 43.8592 103.724 44.1919 104.453 45.2483L111.562 55.549C111.947 56.1078 112.089 56.7994 111.954 57.4648C111.82 58.1302 111.42 58.7123 110.848 59.0772C109.431 59.9804 105.235 64.9179 108.095 75.8538C108.222 76.3377 108.348 76.8174 108.473 77.2927C109.277 80.3457 110.032 83.2137 110.481 85.8306C111.004 88.8759 111.164 91.84 110.418 94.6743C108.869 100.563 103.761 104.766 94.0214 108.628C89.9165 110.256 86.7117 111.582 84.5455 112.624C83.4498 113.15 82.7191 113.558 82.293 113.851C82.2695 113.868 82.248 113.883 82.2285 113.897C81.8242 114.733 80.9677 115.31 79.9764 115.31C78.9852 115.31 78.1287 114.733 77.7244 113.897C77.7048 113.883 77.6834 113.868 77.6599 113.851C77.2338 113.558 76.503 113.15 75.4074 112.624C73.2411 111.582 70.0364 110.256 65.9314 108.628C56.1922 104.766 51.0841 100.563 49.5349 94.6743C48.7891 91.84 48.9491 88.8759 49.4715 85.8306C49.9204 83.2137 50.6757 80.3457 51.4798 77.2927C51.605 76.8174 51.7313 76.3377 51.8578 75.8538C54.7174 64.9179 50.5223 59.9804 49.1052 59.0772C48.5326 58.7123 48.1332 58.1302 47.9985 57.4648C47.8639 56.7994 48.0056 56.1078 48.3913 55.549L55.4997 45.2483ZM79.9764 109.396C79.3023 108.982 78.4834 108.554 77.5737 108.117C75.2288 106.99 71.8719 105.605 67.7747 103.98C58.3757 100.253 55.2817 96.8658 54.3703 93.4021C53.8857 91.5604 53.9308 89.4079 54.3995 86.676C54.8083 84.293 55.4995 81.6661 56.3098 78.5865C56.4356 78.1084 56.5643 77.6194 56.6952 77.1187C59.3863 66.8271 56.8142 59.9748 53.7626 56.5687L58.4296 49.8059C62.9682 51.5423 71.087 52.8643 79.9764 49.3716C88.8659 52.8643 96.9846 51.5423 101.523 49.8059L106.19 56.5687C103.139 59.9748 100.567 66.8271 103.258 77.1187C103.389 77.6194 103.517 78.1084 103.643 78.5864C104.453 81.6661 105.145 84.293 105.553 86.676C106.022 89.4079 106.067 91.5604 105.583 93.4021C104.671 96.8658 101.577 100.253 92.1782 103.98C88.081 105.605 84.7241 106.99 82.3792 108.117C81.4695 108.554 80.6506 108.982 79.9764 109.396Z" fill="#212121"/>
</g>
<defs>
<filter id="filter0_d_453_1922" x="21.9489" y="18.168" width="116.055" height="123.143" filterUnits="userSpaceOnUse" color-interpolation-filters="sRGB">
<feFlood flood-opacity="0" result="BackgroundImageFix"/>
<feColorMatrix in="SourceAlpha" type="matrix" values="0 0 0 0 0 0 0 0 0 0 0 0 0 0 0 0 0 0 127 0" result="hardAlpha"/>
<feOffset/>
<feGaussianBlur stdDeviation="13"/>
<feComposite in2="hardAlpha" operator="out"/>
<feColorMatrix type="matrix" values="0 0 0 0 0.2 0 0 0 0 0.25098 0 0 0 0 0.945098 0 0 0 1 0"/>
<feBlend mode="normal" in2="BackgroundImageFix" result="effect1_dropShadow_453_1922"/>
<feBlend mode="normal" in="SourceGraphic" in2="effect1_dropShadow_453_1922" result="shape"/>
</filter>
</defs>
</svg>
