<svg width="138" height="140" viewBox="0 0 138 140" fill="none" xmlns="http://www.w3.org/2000/svg">
<g filter="url(#filter0_d_453_2020)">
<path fill-rule="evenodd" clip-rule="evenodd" d="M40 68.3804C40 52.695 52.7703 40 68.5 40C84.2297 40 97 52.695 97 68.3804H94.5L97 68.3778L97 68.3804C97.0052 73.8247 95.4316 79.1461 92.4807 83.7099L92.3041 82.7153L89.8426 83.1525L91.8897 84.5875C92.0925 84.2983 92.2895 84.0057 92.4807 83.7099L93.4492 89.1629L94.6746 96.0629C94.835 96.9659 94.488 97.8842 93.7706 98.4556C93.0531 99.027 92.0804 99.1596 91.2362 98.8012L84.7615 96.0525L80.3611 94.1854C80.7207 94.0211 81.0764 93.8497 81.4278 93.6712L80.2961 91.4421L79.3196 93.7435L80.3611 94.1854C76.7485 95.8354 72.7319 96.7608 68.5 96.7608C52.7703 96.7608 40 84.0658 40 68.3804ZM68.5 45C55.5099 45 45 55.4781 45 68.3804C45 81.2827 55.5099 91.7608 68.5 91.7608C72.3431 91.7608 75.9628 90.8384 79.1643 89.2129C79.822 88.879 80.5936 88.8526 81.2726 89.1407L88.9453 92.3967L87.3811 83.5896C87.2649 82.9353 87.414 82.2616 87.7955 81.7174C90.5377 77.8056 92.005 73.1506 92 68.383V68.3804C92 55.4781 81.4901 45 68.5 45Z" fill="#212121"/>
<path d="M92.4807 83.7099L92.3041 82.7153L89.8426 83.1525L91.8897 84.5875C92.0925 84.2983 92.2895 84.0057 92.4807 83.7099Z" fill="#212121"/>
<path d="M80.3611 94.1854C80.7207 94.0211 81.0764 93.8497 81.4278 93.6712L80.2961 91.4421L79.3196 93.7435L80.3611 94.1854Z" fill="#212121"/>
<path d="M59.5 68C59.5 69.933 57.933 71.5 56 71.5C54.067 71.5 52.5 69.933 52.5 68C52.5 66.067 54.067 64.5 56 64.5C57.933 64.5 59.5 66.067 59.5 68Z" fill="#212121"/>
<path d="M72.5 68C72.5 69.933 70.933 71.5 69 71.5C67.067 71.5 65.5 69.933 65.5 68C65.5 66.067 67.067 64.5 69 64.5C70.933 64.5 72.5 66.067 72.5 68Z" fill="#212121"/>
<path d="M85.5 68C85.5 69.933 83.933 71.5 82 71.5C80.067 71.5 78.5 69.933 78.5 68C78.5 66.067 80.067 64.5 82 64.5C83.933 64.5 85.5 66.067 85.5 68Z" fill="#212121"/>
</g>
<defs>
<filter id="filter0_d_453_2020" x="14" y="14" width="109" height="111" filterUnits="userSpaceOnUse" color-interpolation-filters="sRGB">
<feFlood flood-opacity="0" result="BackgroundImageFix"/>
<feColorMatrix in="SourceAlpha" type="matrix" values="0 0 0 0 0 0 0 0 0 0 0 0 0 0 0 0 0 0 127 0" result="hardAlpha"/>
<feOffset/>
<feGaussianBlur stdDeviation="13"/>
<feComposite in2="hardAlpha" operator="out"/>
<feColorMatrix type="matrix" values="0 0 0 0 0.2 0 0 0 0 0.25098 0 0 0 0 0.945098 0 0 0 1 0"/>
<feBlend mode="normal" in2="BackgroundImageFix" result="effect1_dropShadow_453_2020"/>
<feBlend mode="normal" in="SourceGraphic" in2="effect1_dropShadow_453_2020" result="shape"/>
</filter>
</defs>
</svg>
