<svg width="161" height="160" viewBox="0 0 161 160" fill="none" xmlns="http://www.w3.org/2000/svg">
<g filter="url(#filter0_d_453_1946)">
<path fill-rule="evenodd" clip-rule="evenodd" d="M80.5194 46.8047C62.6571 46.8047 48.1769 61.2849 48.1769 79.1472C48.1769 97.0095 62.6571 111.49 80.5194 111.49C98.3817 111.49 112.862 97.0095 112.862 79.1472C112.862 61.2849 98.3817 46.8047 80.5194 46.8047ZM43.1769 79.1472C43.1769 58.5235 59.8957 41.8047 80.5194 41.8047C101.143 41.8047 117.862 58.5235 117.862 79.1472C117.862 99.7709 101.143 116.49 80.5194 116.49C59.8957 116.49 43.1769 99.7709 43.1769 79.1472Z" fill="#3340F1"/>
<path fill-rule="evenodd" clip-rule="evenodd" d="M79.3917 70.1294C71.8418 69.8445 65.0187 70.9902 61.1275 72.1019C59.7999 72.4813 58.4162 71.7125 58.0369 70.3849C57.6576 69.0574 58.4263 67.6736 59.7539 67.2943C64.1304 66.0439 71.4805 64.8273 79.5802 65.133C87.671 65.4383 96.7413 67.2719 104.347 72.3424C105.496 73.1083 105.806 74.6605 105.041 75.8093C104.275 76.9581 102.722 77.2686 101.574 76.5027C95.0062 72.1244 86.9505 70.4147 79.3917 70.1294Z" fill="#3340F1"/>
<path fill-rule="evenodd" clip-rule="evenodd" d="M78.6344 79.9134C72.6265 79.6703 67.1993 80.6494 64.1257 81.591C62.8055 81.9955 61.4075 81.2531 61.003 79.933C60.5986 78.6128 61.341 77.2148 62.6611 76.8103C66.2476 75.7116 72.2377 74.6505 78.8365 74.9175C85.4323 75.1843 92.8615 76.7887 99.0992 81.2475C100.222 82.0504 100.482 83.6118 99.6792 84.7351C98.8763 85.8583 97.3148 86.118 96.1916 85.3151C91.0119 81.6126 84.6452 80.1566 78.6344 79.9134Z" fill="#3340F1"/>
<path fill-rule="evenodd" clip-rule="evenodd" d="M77.8213 90.5355C73.1203 90.3436 68.8765 91.118 66.4936 91.8543C65.1744 92.262 63.7745 91.523 63.3669 90.2039C62.9593 88.8847 63.6982 87.4849 65.0174 87.0772C67.9166 86.1813 72.7279 85.3235 78.0252 85.5397C83.3204 85.7558 89.3254 87.0558 94.383 90.7024C95.5029 91.5099 95.7562 93.0725 94.9487 94.1924C94.1412 95.3124 92.5786 95.5656 91.4587 94.7581C87.4612 91.8758 82.5246 90.7274 77.8213 90.5355Z" fill="#3340F1"/>
</g>
<defs>
<filter id="filter0_d_453_1946" x="17.1769" y="15.8047" width="126.685" height="126.686" filterUnits="userSpaceOnUse" color-interpolation-filters="sRGB">
<feFlood flood-opacity="0" result="BackgroundImageFix"/>
<feColorMatrix in="SourceAlpha" type="matrix" values="0 0 0 0 0 0 0 0 0 0 0 0 0 0 0 0 0 0 127 0" result="hardAlpha"/>
<feOffset/>
<feGaussianBlur stdDeviation="13"/>
<feComposite in2="hardAlpha" operator="out"/>
<feColorMatrix type="matrix" values="0 0 0 0 0.2 0 0 0 0 0.25098 0 0 0 0 0.945098 0 0 0 1 0"/>
<feBlend mode="normal" in2="BackgroundImageFix" result="effect1_dropShadow_453_1946"/>
<feBlend mode="normal" in="SourceGraphic" in2="effect1_dropShadow_453_1946" result="shape"/>
</filter>
</defs>
</svg>
