<svg width="160" height="160" viewBox="0 0 160 160" fill="none" xmlns="http://www.w3.org/2000/svg">
<g filter="url(#filter0_d_453_1951)">
<path fill-rule="evenodd" clip-rule="evenodd" d="M80.4722 46.8047C62.6099 46.8047 48.1296 61.2849 48.1296 79.1472C48.1296 97.0095 62.6099 111.49 80.4722 111.49C98.3345 111.49 112.815 97.0095 112.815 79.1472C112.815 61.2849 98.3345 46.8047 80.4722 46.8047ZM43.1296 79.1472C43.1296 58.5235 59.8485 41.8047 80.4722 41.8047C101.096 41.8047 117.815 58.5235 117.815 79.1472C117.815 99.7709 101.096 116.49 80.4722 116.49C59.8485 116.49 43.1296 99.7709 43.1296 79.1472Z" fill="#212121"/>
<path fill-rule="evenodd" clip-rule="evenodd" d="M75.4431 43.0912C76.5803 42.3081 78.1369 42.5952 78.92 43.7324C83.8441 50.8833 86.312 59.7806 85.2622 69.0856C84.845 72.783 83.9001 76.2973 82.5094 79.5594C82.0762 80.5756 81.0272 81.1871 79.9294 81.0632C78.8316 80.9393 77.9452 80.1096 77.7493 79.0223C75.677 67.5216 71.1988 56.8803 61.5523 52.8851C60.2767 52.3568 59.6709 50.8944 60.1992 49.6188C60.7275 48.3432 62.1899 47.7373 63.4655 48.2656C72.4011 51.9664 77.4121 59.9627 80.2862 68.5911C80.2887 68.5691 80.2912 68.547 80.2937 68.525C81.2034 60.4625 79.0685 52.7642 74.8019 46.5681C74.0188 45.4309 74.3059 43.8742 75.4431 43.0912Z" fill="#212121"/>
<path fill-rule="evenodd" clip-rule="evenodd" d="M45.266 69.3513C45.0029 67.9959 45.8883 66.6837 47.2437 66.4206C55.7668 64.7657 64.9088 66.0602 73.0183 70.7422C76.2407 72.6027 79.0842 74.8737 81.5184 77.4524C82.2767 78.2558 82.4179 79.4617 81.8655 80.4185C81.3131 81.3753 80.1982 81.856 79.1232 81.601C67.753 78.903 56.2087 78.7539 48.6905 85.999C47.6963 86.9571 46.1136 86.9278 45.1556 85.9336C44.1975 84.9394 44.2268 83.3568 45.221 82.3987C52.1852 75.6875 61.518 74.2909 70.5759 75.1057C70.5567 75.0946 70.5375 75.0835 70.5183 75.0724C63.4917 71.0155 55.5819 69.8949 48.1967 71.3289C46.8413 71.5921 45.5292 70.7067 45.266 69.3513Z" fill="#212121"/>
<path fill-rule="evenodd" clip-rule="evenodd" d="M61.7373 110.639C60.36 110.543 59.3217 109.348 59.4183 107.97C60.0258 99.3094 63.6423 90.8139 70.2637 84.1926C72.8948 81.5615 75.8243 79.4027 78.9452 77.7188C79.9175 77.1942 81.1188 77.3701 81.9001 78.1513C82.6813 78.9325 82.8571 80.1338 82.3325 81.1061C76.7836 91.3906 73.6518 102.503 78.7041 111.64C79.3722 112.848 78.9343 114.37 77.726 115.038C76.5177 115.706 74.9966 115.268 74.3285 114.06C69.6484 105.596 70.7149 96.2194 73.8463 87.6811C73.8306 87.6967 73.8149 87.7124 73.7992 87.7281C68.062 93.4653 64.9324 100.816 64.4061 108.32C64.3095 109.698 63.1146 110.736 61.7373 110.639Z" fill="#212121"/>
<path fill-rule="evenodd" clip-rule="evenodd" d="M105.881 105.416C105.432 106.721 104.009 107.415 102.703 106.965C94.4947 104.137 87.2247 98.4445 82.5427 90.335C80.6822 87.1126 79.3552 83.7241 78.5365 80.2737C78.2814 79.1988 78.7622 78.0839 79.719 77.5315C80.6757 76.9791 81.8816 77.1202 82.685 77.8786C91.183 85.9002 101.106 91.8014 111.24 89.2861C112.58 88.9535 113.936 89.7701 114.268 91.1102C114.601 92.4502 113.784 93.8062 112.444 94.1388C103.057 96.4688 94.2765 93.0119 86.8396 87.7773C86.8507 87.7965 86.8617 87.8157 86.8728 87.835C90.9296 94.8616 97.2194 99.7869 104.332 102.238C105.638 102.687 106.331 104.11 105.881 105.416Z" fill="#212121"/>
<path fill-rule="evenodd" clip-rule="evenodd" d="M112.261 61.4237C113.405 62.196 113.707 63.7499 112.935 64.8944C108.078 72.0913 100.698 77.6403 91.6534 80.0639C88.0593 81.027 84.4428 81.4318 80.8981 81.3296C79.7938 81.2978 78.8413 80.5448 78.5554 79.4777C78.2694 78.4105 78.7179 77.2822 79.6583 76.7025C89.606 70.5703 97.8744 62.5127 98.0676 52.0734C98.0931 50.6929 99.2329 49.5945 100.613 49.6201C101.994 49.6456 103.092 50.7854 103.067 52.1659C102.888 61.8359 97.2761 69.4227 90.295 75.2515C90.3165 75.2458 90.3379 75.24 90.3593 75.2343C98.1965 73.1343 104.582 68.3336 108.79 62.0976C109.562 60.9531 111.116 60.6514 112.261 61.4237Z" fill="#212121"/>
</g>
<defs>
<filter id="filter0_d_453_1951" x="17.1296" y="15.8047" width="126.685" height="126.686" filterUnits="userSpaceOnUse" color-interpolation-filters="sRGB">
<feFlood flood-opacity="0" result="BackgroundImageFix"/>
<feColorMatrix in="SourceAlpha" type="matrix" values="0 0 0 0 0 0 0 0 0 0 0 0 0 0 0 0 0 0 127 0" result="hardAlpha"/>
<feOffset/>
<feGaussianBlur stdDeviation="13"/>
<feComposite in2="hardAlpha" operator="out"/>
<feColorMatrix type="matrix" values="0 0 0 0 0.2 0 0 0 0 0.25098 0 0 0 0 0.945098 0 0 0 1 0"/>
<feBlend mode="normal" in2="BackgroundImageFix" result="effect1_dropShadow_453_1951"/>
<feBlend mode="normal" in="SourceGraphic" in2="effect1_dropShadow_453_1951" result="shape"/>
</filter>
</defs>
</svg>
