<svg width="26" height="32" viewBox="0 0 26 32" fill="none" xmlns="http://www.w3.org/2000/svg">
<path fill-rule="evenodd" clip-rule="evenodd" d="M8.00632 10C8.03935 8.7334 8.21172 7.0165 8.81837 5.58544C9.15654 4.78771 9.59972 4.15154 10.1606 3.7171C10.7007 3.2987 11.4349 3 12.4998 3C13.9667 3 14.9119 3.38658 15.5497 3.88094C16.2032 4.38738 16.6571 5.1031 16.9651 5.95011C17.4997 7.4202 17.5141 9.01686 17.5045 10H8.00632ZM5.00397 10.0646C5.03145 8.63226 5.2134 6.40294 6.0563 4.41456C6.53063 3.29562 7.24369 2.18179 8.32346 1.3454C9.42394 0.492963 10.8148 0 12.4998 0C14.5329 0 16.1503 0.550915 17.3874 1.50969C18.609 2.45637 19.3425 3.7094 19.7845 4.92489C20.498 6.88692 20.5202 8.98228 20.5069 10.0099C23.032 10.1681 25.0643 12.2039 25.1852 14.7637L25.7526 26.7637C25.8874 29.6152 23.612 32 20.7575 32H5.24185C2.38736 32 0.111971 29.6152 0.246736 26.7637L0.814119 14.7637C0.927169 12.3712 2.70983 10.4365 5.00397 10.0646ZM15.9997 21C15.9997 22.6562 14.6569 24 12.9997 24C11.9049 24 10.9479 23.4141 10.4245 22.5391C10.1549 22.0898 9.99967 21.5625 9.99967 21C9.99967 19.3438 11.3424 18 12.9997 18C14.6569 18 15.9997 19.3438 15.9997 21Z" fill="white"/>
</svg>
