<svg width="105" height="105" viewBox="0 0 105 105" fill="none" xmlns="http://www.w3.org/2000/svg">
<path d="M50.9844 11.1036C51.456 9.62833 53.5435 9.62832 54.0151 11.1036L63.0592 39.3953C63.4806 40.7137 64.7059 41.6083 66.0899 41.6083H95.3946C96.9294 41.6083 97.5743 43.5672 96.3396 44.479L72.5652 62.0357C71.4681 62.8458 71.0094 64.265 71.4246 65.5641L80.4983 93.9482C80.9683 95.4185 79.2795 96.6294 78.0378 95.7124L54.3899 78.2492C53.2664 77.4195 51.7331 77.4195 50.6096 78.2492L26.9617 95.7124C25.7199 96.6294 24.0312 95.4185 24.5012 93.9482L33.5749 65.5641C33.9901 64.265 33.5313 62.8458 32.4343 62.0357L8.65982 44.479C7.42512 43.5672 8.07002 41.6083 9.60489 41.6083H38.9096C40.2936 41.6083 41.5189 40.7137 41.9403 39.3954L50.9844 11.1036Z" stroke="#F6EDDB" stroke-width="5" stroke-linejoin="round"/>
</svg>
