<svg width="105" height="105" viewBox="0 0 105 105" fill="none" xmlns="http://www.w3.org/2000/svg">
<path d="M50.9846 11.1036C51.4562 9.62833 53.5437 9.62832 54.0153 11.1036L63.0594 39.3953C63.4809 40.7137 64.7061 41.6083 66.0902 41.6083H95.3948C96.9297 41.6083 97.5746 43.5672 96.3399 44.479L72.5654 62.0357C71.4684 62.8458 71.0096 64.265 71.4249 65.5641L80.4985 93.9482C80.9685 95.4185 79.2798 96.6294 78.0381 95.7124L54.3901 78.2492C53.2666 77.4195 51.7334 77.4195 50.6098 78.2492L26.9619 95.7124C25.7202 96.6294 24.0314 95.4185 24.5015 93.9482L33.5751 65.5641C33.9904 64.265 33.5316 62.8458 32.4345 62.0357L8.66006 44.479C7.42537 43.5672 8.07026 41.6083 9.60513 41.6083H38.9098C40.2938 41.6083 41.5191 40.7137 41.9405 39.3954L50.9846 11.1036Z" stroke="#212121" stroke-width="2.5" stroke-linejoin="round"/>
</svg>
