
<svg width="61" height="61" viewBox="0 0 61 61" fill="none" xmlns="http://www.w3.org/2000/svg">
<path d="M55.7804 7.62028L55.0198 6.86143C50.7095 2.05541 44.3708 0.537718 44.3708 0.537718C36.7644 -1.73882 24.8477 3.32015 14.2037 13.686C5.32957 22.0383 0 32.1563 0 39.7447C0 40.7641 0.258619 41.7709 0.258619 42.7801C0.763179 47.8391 4.06183 53.1535 6.84325 55.683C10.4005 59.2192 14.9568 61 20.0277 61C28.3948 61 38.2907 56.1864 47.4108 47.5912C61.6146 33.674 65.1617 17.2323 55.7804 7.62028ZM15.2129 44.8037C15.2129 41.5103 18.7574 34.6858 26.3639 27.0973C33.7244 19.7618 41.3308 17.7382 44.8754 16.9794C43.1031 21.7905 39.2999 27.5981 33.7244 33.1731C28.3948 38.2321 22.3147 42.2717 16.9851 44.2978C16.4806 44.5558 15.7174 44.5558 15.2129 44.8037ZM17.7483 17.2323C26.1154 8.88502 34.9896 4.83278 40.5676 4.83278C42.3424 4.83278 43.8637 5.3488 44.8779 6.35553C45.8972 7.36227 46.3992 9.39092 46.1456 11.6725C43.1031 11.9179 32.7026 13.686 22.8193 23.5586C16.4806 29.8823 9.88328 38.9808 10.4005 45.3045C8.87416 45.3045 7.34781 44.8012 6.59731 44.0398C5.97057 43.4155 5.53144 42.6287 5.32957 41.7683C5.32957 41.7683 5.07095 40.5036 5.07095 39.7447C5.32957 33.421 10.1419 24.5678 17.7483 17.2323ZM43.8637 43.7919C31.6934 55.9385 17.7483 59.2167 10.4005 52.1443C9.82885 51.6073 9.31708 51.0103 8.87416 50.3635C9.38126 50.6215 10.1419 50.6215 10.9025 50.6215C13.1845 50.6215 15.9735 50.1156 18.7574 49.0988C24.8502 46.8273 31.4348 42.5297 37.2689 36.7094C46.1431 27.8562 51.2141 17.7382 51.2141 10.4078L51.4727 10.6531L52.2333 11.159C59.325 18.4996 55.7805 32.1538 43.8663 43.7944L43.8637 43.7919Z" fill="white"/>
</svg>
