<svg width="67" height="60" viewBox="0 0 67 60" fill="none" xmlns="http://www.w3.org/2000/svg">
<path d="M55.3345 25.0201C54.4182 25.002 53.5171 24.7826 52.695 24.3774C51.873 23.9723 51.1501 23.3913 50.5775 22.6756C50.005 21.96 49.5969 21.1272 49.3821 20.2362C49.1673 19.3453 49.151 18.418 49.3345 17.5201H49.0845C47.7895 17.5337 46.5137 17.2061 45.3855 16.5701C44.2573 15.9342 43.3164 15.0124 42.6576 13.8974C41.9987 12.7824 41.6451 11.5136 41.6322 10.2185C41.6194 8.92348 41.9479 7.6479 42.5845 6.52009C37.3573 4.60897 31.6418 4.49676 26.3436 6.20126C21.0455 7.90575 16.4676 11.3295 13.3352 15.93C10.2029 20.5304 8.69525 26.0446 9.0512 31.5988C9.40715 37.1531 11.6063 42.4297 15.3003 46.5927C18.9942 50.7557 23.9717 53.5671 29.4441 54.5813C34.9165 55.5956 40.5709 54.7547 45.5114 52.192C50.4519 49.6293 54.396 45.4912 56.7187 40.4335C59.0415 35.3757 59.6101 29.6875 58.3345 24.2701C57.5845 24.7701 56.3345 25.0201 55.3345 25.0201Z" stroke="#F6EDDB" stroke-width="5" stroke-linecap="round" stroke-linejoin="round"/>
<path d="M34.5 38C38.6421 38 42 34.6421 42 30.5C42 26.3579 38.6421 23 34.5 23C30.3579 23 27 26.3579 27 30.5C27 34.6421 30.3579 38 34.5 38Z" stroke="#F6EDDB" stroke-width="5" stroke-linecap="round" stroke-linejoin="round"/>
<path d="M23 17L20.5 21M17.5 34.5L21.5 36.5" stroke="#F6EDDB" stroke-width="5" stroke-linecap="round" stroke-linejoin="round"/>
<path d="M35 45L30.5 48" stroke="#F6EDDB" stroke-width="5" stroke-linecap="round" stroke-linejoin="round"/>
<path d="M46 36H50" stroke="#F6EDDB" stroke-width="5" stroke-linecap="round" stroke-linejoin="round"/>
</svg>
