<svg width="67" height="60" viewBox="0 0 67 60" fill="none" xmlns="http://www.w3.org/2000/svg">
<path d="M63.3858 28.5237C63.3858 44.8229 50.0073 51.6142 33.504 51.6142C17.0006 51.6142 3.62207 42.5591 3.62207 28.5237C3.62207 15.7711 17.0006 7.24414 33.504 7.24414C50.0073 7.24414 63.3858 15.7711 63.3858 28.5237Z" stroke="#F6EDDB" stroke-width="5" stroke-linejoin="round"/>
<ellipse cx="33.5038" cy="25.3542" rx="10.8661" ry="6.33858" stroke="#F6EDDB" stroke-width="5" stroke-linejoin="round"/>
<path d="M25.3542 27.1655C27.4397 25.7989 33.8002 23.8856 42.559 27.1655" stroke="#F6EDDB" stroke-width="5" stroke-linecap="round" stroke-linejoin="round"/>
<path d="M5.43286 36.2207C8.9543 42.4743 14.0746 39.3831 17.5066 38.6258C24.046 37.1828 25.5553 42.9553 34.1074 43.4364C42.6595 43.9174 41.6533 38.1449 48.1931 37.1828C54.7329 36.2207 53.7268 41.0312 59.7636 39.588" stroke="#F6EDDB" stroke-width="5" stroke-linecap="round" stroke-linejoin="round"/>
<path d="M13.5825 25.3545L10.866 27.1655" stroke="#F6EDDB" stroke-width="5" stroke-linecap="round" stroke-linejoin="round"/>
<path d="M39.3897 13.2828L36.1934 13.283" stroke="#F6EDDB" stroke-width="5" stroke-linecap="round" stroke-linejoin="round"/>
<path d="M48.8975 18.1104L49.803 19.4686" stroke="#F6EDDB" stroke-width="5" stroke-linecap="round" stroke-linejoin="round"/>
<path d="M55.6889 28.5234L52.0669 29.4289" stroke="#F6EDDB" stroke-width="5" stroke-linecap="round" stroke-linejoin="round"/>
<path d="M18.5627 17.6572L19.921 18.11" stroke="#F6EDDB" stroke-width="5" stroke-linecap="round" stroke-linejoin="round"/>
<path d="M18.1101 32.5986H20.3739" stroke="#F6EDDB" stroke-width="5" stroke-linecap="round" stroke-linejoin="round"/>
<path d="M34.8621 38.0315L38.0314 37.126" stroke="#F6EDDB" stroke-width="5" stroke-linecap="round" stroke-linejoin="round"/>
</svg>
