<svg width="105" height="105" viewBox="0 0 105 105" fill="none" xmlns="http://www.w3.org/2000/svg">
<path d="M69.0401 11.7745C69.3541 11.2452 69.2362 10.5661 68.762 10.1737C68.2879 9.78133 67.5987 9.79247 67.1375 10.2L15.0814 56.1917C14.692 56.5358 14.556 57.0849 14.74 57.5709C14.9239 58.0569 15.3894 58.3785 15.9091 58.3785H56.3098L35.6148 94.8379C35.3093 95.3761 35.4436 96.0568 35.9306 96.4386C36.4177 96.8204 37.1108 96.7884 37.5605 96.3633L89.9495 46.8456C90.3216 46.4939 90.4416 45.9508 90.2523 45.4751C90.0631 44.9994 89.6029 44.6871 89.0909 44.6871H49.5152L69.0401 11.7745Z" stroke="#212121" stroke-width="2.5" stroke-linejoin="round"/>
</svg>
