<svg width="105" height="105" viewBox="0 0 105 105" fill="none" xmlns="http://www.w3.org/2000/svg">
<path d="M70.1153 12.4122C70.7433 11.3536 70.5073 9.99541 69.5591 9.21067C68.6108 8.42594 67.2324 8.44822 66.3099 9.26319L14.2539 55.2549C13.475 55.9431 13.2031 57.0413 13.571 58.0134C13.9389 58.9854 14.8699 59.6285 15.9092 59.6285H54.163L34.5278 94.2208C33.9168 95.2972 34.1855 96.6587 35.1595 97.4223C36.1336 98.186 37.5198 98.122 38.4193 97.2718L90.8083 47.754C91.5524 47.0506 91.7924 45.9645 91.4139 45.0131C91.0354 44.0616 90.115 43.4371 89.091 43.4371H51.7103L70.1153 12.4122Z" stroke="#F6EDDB" stroke-width="5" stroke-linejoin="round"/>
</svg>
