<svg width="78" height="78" viewBox="0 0 78 78" fill="none" xmlns="http://www.w3.org/2000/svg">
<path d="M37.0439 32.5082L38.9766 26.5145L40.9092 32.5082C41.209 33.4376 42.0741 34.0677 43.0507 34.0677H49.3263L44.2345 37.7954C43.4519 38.3683 43.1245 39.3783 43.4222 40.3014L45.363 46.3202L40.3057 42.6178C39.5143 42.0384 38.4388 42.0384 37.6475 42.6178L32.5902 46.3202L34.531 40.3014C34.8286 39.3783 34.5012 38.3683 33.7187 37.7954L28.6268 34.0677H34.9025C35.8791 34.0677 36.7442 33.4376 37.0439 32.5082Z" stroke="#212121" stroke-width="2.5" stroke-linejoin="round"/>
<path d="M16.5573 5.9043L9.44885 16.2051C12.0006 17.8315 16.3386 24.012 13.2765 35.7223C9.44885 50.3602 6.71482 57.9503 25.8531 65.5403C34.0552 68.7932 38.9764 70.9618 38.9764 72.046C38.9764 70.9618 43.8977 68.7932 52.0998 65.5403C71.238 57.9503 68.504 50.3602 64.6763 35.7223C61.6142 24.012 65.9522 17.8315 68.504 16.2051L61.3955 5.9043C58.1147 7.71145 49.0377 10.2415 38.9764 5.9043C28.9152 10.2415 19.8382 7.71145 16.5573 5.9043Z" stroke="#212121" stroke-width="2.5" stroke-linecap="round" stroke-linejoin="round"/>
</svg>
