<svg width="78" height="78" viewBox="0 0 78 78" fill="none" xmlns="http://www.w3.org/2000/svg">
<path d="M38.5379 31.9476L38.9765 30.5876L39.415 31.9476C40.0627 33.9562 41.9321 35.3177 44.0426 35.3177H45.5027L44.2896 36.2057C42.5985 37.4439 41.891 39.6263 42.5343 41.6211L42.9897 43.0337L41.8486 42.1983C40.1385 40.9463 37.8144 40.9463 36.1043 42.1983L34.9632 43.0337L35.4187 41.6211C36.0619 39.6263 35.3544 37.4439 33.6633 36.2057L32.4502 35.3177H33.9103C36.0208 35.3177 37.8902 33.9562 38.5379 31.9476Z" stroke="#F6EDDB" stroke-width="5" stroke-linejoin="round"/>
<path d="M16.5575 5.90527L9.44897 16.206C12.0007 17.8325 16.3387 24.0129 13.2766 35.7233C9.44897 50.3612 6.71494 57.9512 25.8532 65.5413C34.0553 68.7942 38.9765 70.9627 38.9765 72.047C38.9765 70.9627 43.8978 68.7942 52.0999 65.5413C71.2381 57.9512 68.5041 50.3612 64.6765 35.7233C61.6143 24.0129 65.9523 17.8325 68.5041 16.206L61.3956 5.90527C58.1148 7.71242 49.0378 10.2424 38.9765 5.90527C28.9153 10.2424 19.8383 7.71242 16.5575 5.90527Z" stroke="#F6EDDB" stroke-width="5" stroke-linecap="round" stroke-linejoin="round"/>
</svg>
