<svg width="60" height="60" viewBox="0 0 60 60" fill="none" xmlns="http://www.w3.org/2000/svg">
<g clip-path="url(#clip0_240_312)">
<ellipse cx="30.0008" cy="10.903" rx="16.661" ry="5.42884" transform="rotate(-6.50131 30.0008 10.903)" stroke="#F6EDDB" stroke-width="5" stroke-linejoin="round"/>
<path d="M13.609 12.7494C12.5526 21.5027 10.3493 39.7336 9.98708 44.4423C9.53432 50.3281 14.9674 56.6667 21.7587 56.6667C27.1918 56.6667 35.1904 56.6667 38.5106 56.6667C42.1327 56.2139 49.2862 53.1352 48.924 44.4423C48.5618 35.7494 47.4148 17.5788 46.6602 9.58008" stroke="#F6EDDB" stroke-width="5" stroke-linecap="round" stroke-linejoin="round"/>
<path d="M11.7979 33.5768C19.0419 35.8406 36.3372 38.9193 47.5656 33.124" stroke="#F6EDDB" stroke-width="5" stroke-linecap="round" stroke-linejoin="round"/>
<circle cx="17.2311" cy="41.2735" r="2.26378" fill="#F6EDDB"/>
<circle cx="20.8531" cy="46.7062" r="2.26378" fill="#F6EDDB"/>
<circle cx="13.609" cy="45.8009" r="2.26378" fill="#F6EDDB"/>
<circle cx="17.2311" cy="52.1398" r="2.26378" fill="#F6EDDB"/>
<circle cx="24.4752" cy="42.1788" r="2.26378" fill="#F6EDDB"/>
<circle cx="28.097" cy="47.6114" r="2.26378" fill="#F6EDDB"/>
<circle cx="24.4752" cy="53.045" r="2.26378" fill="#F6EDDB"/>
<circle cx="31.7191" cy="42.1788" r="2.26378" fill="#F6EDDB"/>
<circle cx="35.3412" cy="47.6114" r="2.26378" fill="#F6EDDB"/>
<circle cx="31.7191" cy="53.045" r="2.26378" fill="#F6EDDB"/>
<circle cx="38.0577" cy="42.1788" r="2.26378" fill="#F6EDDB"/>
<circle cx="42.5853" cy="46.7062" r="2.26378" fill="#F6EDDB"/>
<circle cx="38.0577" cy="53.045" r="2.26378" fill="#F6EDDB"/>
<circle cx="44.3963" cy="41.2735" r="2.26378" fill="#F6EDDB"/>
<circle cx="44.3963" cy="53.045" r="2.26378" fill="#F6EDDB"/>
</g>
<defs>
<clipPath id="clip0_240_312">
<rect width="59.7638" height="59.7638" fill="white"/>
</clipPath>
</defs>
</svg>
