<svg width="78" height="78" viewBox="0 0 78 78" fill="none" xmlns="http://www.w3.org/2000/svg">
<g clip-path="url(#clip0_357_2222)">
<circle cx="39.5667" cy="38.3845" r="34.8425" stroke="#F6EDDB" stroke-width="5" stroke-linecap="round" stroke-linejoin="round"/>
<path d="M35.9554 4.38716C40.5508 11.0607 42.8522 19.3585 41.8724 28.0422C41.4828 31.496 40.6007 34.7746 39.3042 37.8159C37.2097 26.1921 32.529 14.3372 21.6034 9.81231" stroke="#F6EDDB" stroke-width="5" stroke-linecap="round" stroke-linejoin="round"/>
<path d="M6.8147 28.1124C14.7688 26.568 23.2947 27.7755 30.8628 32.145C33.8728 33.8828 36.5254 36.0019 38.7949 38.4062C27.303 35.6793 14.5654 35.2307 6.05022 43.4365" stroke="#F6EDDB" stroke-width="5" stroke-linecap="round" stroke-linejoin="round"/>
<path d="M21.0065 67.3818C21.5734 59.299 24.9465 51.3761 31.1258 45.1968C33.5835 42.7391 36.317 40.7254 39.2266 39.1555C33.6184 49.5501 29.8883 61.7375 35.6106 72.0864" stroke="#F6EDDB" stroke-width="5" stroke-linecap="round" stroke-linejoin="round"/>
<path d="M62.6124 63.8384C54.9517 61.1988 48.1719 55.8901 43.8024 48.322C42.0646 45.312 40.8269 42.1505 40.0636 38.9336C48.6525 47.0411 59.4593 53.7984 70.9365 50.9495" stroke="#F6EDDB" stroke-width="5" stroke-linecap="round" stroke-linejoin="round"/>
<path d="M69.9568 22.733C65.4245 29.4495 58.5419 34.6243 50.1008 36.8861C46.7436 37.7857 43.3694 38.1629 40.0646 38.0676C50.1188 31.8698 59.4429 23.1802 59.6616 11.3567" stroke="#F6EDDB" stroke-width="5" stroke-linecap="round" stroke-linejoin="round"/>
</g>
<defs>
<clipPath id="clip0_357_2222">
<rect width="77.9528" height="77.9528" fill="white"/>
</clipPath>
</defs>
</svg>
