<svg width="97" height="90" viewBox="0 0 97 90" fill="none" xmlns="http://www.w3.org/2000/svg">
<path d="M40.1578 33.6622C28.3467 45.9456 29.5277 54.3315 34.8428 59.6464C43.701 67.3236 51.6144 62.8354 62.0081 51.9693C72.4018 41.1031 69.0947 32.4811 66.1419 29.5283C62.4018 25.7882 51.9688 21.3787 40.1578 33.6622Z" stroke="#F6EDDB" stroke-width="5" stroke-linecap="round" stroke-linejoin="round"/>
<path d="M59.6457 24.8038C57.8741 21.6542 57.1654 12.5203 66.1418 3.54395C70.3938 5.43371 71.0631 11.0243 70.8662 13.5833" stroke="#F6EDDB" stroke-width="5" stroke-linecap="round" stroke-linejoin="round"/>
<path d="M40.1579 64.3707C40.1578 68.5045 37.9166 77.3057 26.9228 83.6529C23.3048 80.7271 23.9507 73.2876 24.8032 70.8666" stroke="#F6EDDB" stroke-width="5" stroke-linecap="round" stroke-linejoin="round"/>
<path d="M67.3228 17.7171C70.8661 15.3549 80.7873 12.1659 92.1259 18.3076C88.5826 24.8038 77.9527 32.481 70.2755 33.6621" stroke="#F6EDDB" stroke-width="5" stroke-linecap="round" stroke-linejoin="round"/>
<path d="M29.4495 69.6564C25.4156 71.021 15.007 71.5335 5.64439 62.6664C10.7483 57.3086 23.003 52.6443 30.7243 53.4904" stroke="#F6EDDB" stroke-width="5" stroke-linecap="round" stroke-linejoin="round"/>
<path d="M41.3384 32.4814C46.2596 32.4814 60.4722 33.7807 68.5037 38.9775" stroke="#F6EDDB" stroke-width="5" stroke-linecap="round" stroke-linejoin="round"/>
<path d="M33.0708 46.0635C40.748 46.4572 57.4015 47.9532 62.5984 50.7879" stroke="#F6EDDB" stroke-width="5" stroke-linecap="round" stroke-linejoin="round"/>
<path d="M37.2046 60.8271C40.1573 60.8273 44.8818 60.8268 49.6062 61.4177" stroke="#F6EDDB" stroke-width="5" stroke-linecap="round" stroke-linejoin="round"/>
</svg>
