<svg width="78" height="78" viewBox="0 0 78 78" fill="none" xmlns="http://www.w3.org/2000/svg">
<g clip-path="url(#clip0_453_1903)">
<circle cx="39.5667" cy="38.3855" r="34.8425" stroke="#212121" stroke-width="2.5" stroke-linecap="round" stroke-linejoin="round"/>
<path d="M35.9554 4.38814C40.5508 11.0617 42.8522 19.3594 41.8724 28.0432C41.4828 31.4969 40.6007 34.7755 39.3042 37.8169C37.2097 26.1931 32.529 14.3382 21.6034 9.81329" stroke="#212121" stroke-width="2.5" stroke-linecap="round" stroke-linejoin="round"/>
<path d="M6.8147 28.1114C14.7688 26.567 23.2947 27.7746 30.8628 32.144C33.8728 33.8818 36.5254 36.001 38.7949 38.4052C27.303 35.6784 14.5654 35.2297 6.05022 43.4355" stroke="#212121" stroke-width="2.5" stroke-linecap="round" stroke-linejoin="round"/>
<path d="M21.0067 67.3828C21.5735 59.3 24.9466 51.3771 31.1259 45.1978C33.5836 42.7401 36.3171 40.7264 39.2267 39.1565C33.6185 49.5511 29.8884 61.7385 35.6108 72.0874" stroke="#212121" stroke-width="2.5" stroke-linecap="round" stroke-linejoin="round"/>
<path d="M62.6122 63.8384C54.9515 61.1988 48.1716 55.8901 43.8022 48.322C42.0643 45.312 40.8267 42.1505 40.0634 38.9336C48.6523 47.0411 59.459 53.7984 70.9363 50.9495" stroke="#212121" stroke-width="2.5" stroke-linecap="round" stroke-linejoin="round"/>
<path d="M69.9568 22.733C65.4245 29.4495 58.5419 34.6243 50.1008 36.8861C46.7436 37.7857 43.3694 38.1629 40.0646 38.0676C50.1188 31.8698 59.4429 23.1802 59.6616 11.3567" stroke="#212121" stroke-width="2.5" stroke-linecap="round" stroke-linejoin="round"/>
</g>
<defs>
<clipPath id="clip0_453_1903">
<rect width="77.9528" height="77.9528" fill="white"/>
</clipPath>
</defs>
</svg>
