<svg width="60" height="60" viewBox="0 0 60 60" fill="none" xmlns="http://www.w3.org/2000/svg">
<path d="M29.3416 6.39018C29.613 5.54113 30.8144 5.54114 31.0858 6.39018L36.2906 22.672C36.5332 23.4307 37.2383 23.9456 38.0348 23.9456H54.8996C55.7829 23.9456 56.1541 25.0729 55.4435 25.5977L41.7613 35.7015C41.13 36.1677 40.8659 36.9845 41.1049 37.7321L46.3268 54.0671C46.5973 54.9133 45.6254 55.6101 44.9108 55.0824L31.3015 45.0323C30.6549 44.5549 29.7725 44.5549 29.1259 45.0323L15.5166 55.0824C14.8019 55.6101 13.8301 54.9133 14.1006 54.0671L19.3224 37.7321C19.5614 36.9845 19.2974 36.1677 18.666 35.7015L4.98387 25.5977C4.2733 25.0729 4.64444 23.9456 5.52776 23.9456H22.3926C23.1891 23.9456 23.8942 23.4307 24.1367 22.672L29.3416 6.39018Z" stroke="#212121" stroke-width="5" stroke-linejoin="round"/>
</svg>
