<svg width="68" height="60" viewBox="0 0 68 60" fill="none" xmlns="http://www.w3.org/2000/svg">
<path d="M55.5532 25.1187C54.6332 25.1006 53.7286 24.8803 52.9033 24.4735C52.0779 24.0668 51.3522 23.4835 50.7774 22.765C50.2026 22.0466 49.7929 21.2105 49.5772 20.316C49.3616 19.4215 49.3452 18.4906 49.5294 17.5891H49.2785C47.9783 17.6028 46.6975 17.2739 45.5648 16.6354C44.4321 15.9969 43.4876 15.0715 42.8261 13.9521C42.1646 12.8327 41.8096 11.5588 41.7968 10.2587C41.7839 8.95852 42.1136 7.6779 42.7528 6.54563C37.5049 4.62695 31.7668 4.51431 26.4477 6.22554C21.1286 7.93677 16.5326 11.374 13.3879 15.9927C10.2432 20.6114 8.72957 26.1473 9.08692 31.7235C9.44428 37.2997 11.6521 42.5972 15.3607 46.7766C19.0692 50.9561 24.0664 53.7786 29.5604 54.7968C35.0545 55.8151 40.7312 54.9709 45.6912 52.3981C50.6513 49.8252 54.6109 45.6708 56.9429 40.5931C59.2748 35.5153 59.8457 29.8046 58.565 24.3658C57.812 24.8677 56.5571 25.1187 55.5532 25.1187Z" stroke="#212121" stroke-width="2.5" stroke-linecap="round" stroke-linejoin="round"/>
<path d="M34.6363 38.1511C38.7948 38.1511 42.166 34.7799 42.166 30.6214C42.166 26.4629 38.7948 23.0918 34.6363 23.0918C30.4778 23.0918 27.1067 26.4629 27.1067 30.6214C27.1067 34.7799 30.4778 38.1511 34.6363 38.1511Z" stroke="#212121" stroke-width="2.5" stroke-linecap="round" stroke-linejoin="round"/>
<path d="M23.091 17.0664L20.5811 21.0822M17.5692 34.6356L21.585 36.6435" stroke="#212121" stroke-width="2.5" stroke-linecap="round" stroke-linejoin="round"/>
<path d="M35.1384 45.1777L30.6206 48.1896" stroke="#212121" stroke-width="2.5" stroke-linecap="round" stroke-linejoin="round"/>
<path d="M46.1818 36.1426H50.1976" stroke="#212121" stroke-width="2.5" stroke-linecap="round" stroke-linejoin="round"/>
</svg>
