<svg width="60" height="60" viewBox="0 0 60 60" fill="none" xmlns="http://www.w3.org/2000/svg">
<path d="M40.1889 7.04597C40.5029 6.51666 40.3849 5.83755 39.9107 5.44518C39.4366 5.05281 38.7474 5.06396 38.2862 5.47144L8.32801 31.9396C7.93856 32.2837 7.80262 32.8328 7.98657 33.3188C8.17051 33.8049 8.63598 34.1264 9.15564 34.1264H31.4949L20.0348 54.3162C19.7293 54.8544 19.8636 55.5351 20.3506 55.9169C20.8377 56.2987 21.5308 56.2667 21.9805 55.8416L52.1303 27.3442C52.5024 26.9925 52.6224 26.4495 52.4331 25.9737C52.2439 25.498 51.7837 25.1858 51.2717 25.1858H29.4277L40.1889 7.04597Z" stroke="#212121" stroke-width="2.5" stroke-linejoin="round"/>
</svg>
