<svg width="60" height="60" viewBox="0 0 60 60" fill="none" xmlns="http://www.w3.org/2000/svg">
<path d="M41.2639 7.68373C41.8919 6.62512 41.6559 5.26689 40.7077 4.48216C39.7594 3.69743 38.381 3.71971 37.4585 4.53468L7.50037 31.0029C6.72149 31.691 6.44961 32.7893 6.8175 33.7613C7.18539 34.7333 8.11631 35.3764 9.15564 35.3764H29.348L18.9477 53.6991C18.3367 54.7755 18.6053 56.137 19.5794 56.9006C20.5534 57.6643 21.9397 57.6003 22.8392 56.75L52.9889 28.2526C53.7331 27.5493 53.9731 26.4632 53.5946 25.5117C53.2161 24.5602 52.2957 23.9358 51.2717 23.9358H31.6226L41.2639 7.68373Z" stroke="#212121" stroke-width="5" stroke-linejoin="round"/>
</svg>
