<svg width="60" height="60" viewBox="0 0 60 60" fill="none" xmlns="http://www.w3.org/2000/svg">
<path d="M29.0727 24.4272L30.056 21.3778L31.0393 24.4272C31.4485 25.6961 32.6294 26.5561 33.9627 26.5561H37.1619L34.5536 28.4657C33.4852 29.2479 33.0383 30.6266 33.4447 31.8868L34.4376 34.9662L31.8704 33.0868C30.7901 32.2958 29.3219 32.2958 28.2416 33.0868L25.6744 34.9662L26.6674 31.8868C27.0737 30.6266 26.6268 29.2479 25.5584 28.4657L22.9501 26.5561H26.1494C27.4826 26.5561 28.6636 25.6961 29.0727 24.4272Z" stroke="#212121" stroke-width="2.5" stroke-linejoin="round"/>
<path d="M12.7678 4.55273L7.28625 12.496C9.254 13.7502 12.5992 18.5161 10.2379 27.5463C7.28625 38.8341 5.17796 44.687 19.9361 50.5399C26.2609 53.0483 30.0559 54.7206 30.0559 55.5567C30.0559 54.7206 33.8508 53.0483 40.1757 50.5399C54.9338 44.687 52.8255 38.8341 49.8739 27.5463C47.5126 18.5161 50.8578 13.7502 52.8255 12.496L47.3439 4.55273C44.814 5.94629 37.8144 7.89726 30.0559 4.55273C22.2973 7.89726 15.2978 5.94629 12.7678 4.55273Z" stroke="#212121" stroke-width="2.5" stroke-linecap="round" stroke-linejoin="round"/>
</svg>
