<svg width="60" height="60" viewBox="0 0 60 60" fill="none" xmlns="http://www.w3.org/2000/svg">
<path d="M26.6808 27.7735C28.1487 27.5922 29.4246 26.6688 30.056 25.3327C30.6874 26.6688 31.9633 27.5922 33.4313 27.7735C32.3338 28.7892 31.8395 30.3047 32.1262 31.7715C30.8376 31.0676 29.2744 31.0676 27.9858 31.7715C28.2725 30.3047 27.7782 28.7892 26.6808 27.7735Z" stroke="#212121" stroke-width="5" stroke-linejoin="round"/>
<path d="M12.7678 4.55273L7.28625 12.496C9.254 13.7502 12.5992 18.5161 10.2379 27.5463C7.28625 38.8341 5.17796 44.687 19.9361 50.5399C26.2609 53.0483 30.0559 54.7206 30.0559 55.5567C30.0559 54.7206 33.8508 53.0483 40.1757 50.5399C54.9338 44.687 52.8255 38.8341 49.8739 27.5463C47.5126 18.5161 50.8578 13.7502 52.8255 12.496L47.3439 4.55273C44.814 5.94629 37.8144 7.89726 30.0559 4.55273C22.2973 7.89726 15.2978 5.94629 12.7678 4.55273Z" stroke="#212121" stroke-width="5" stroke-linecap="round" stroke-linejoin="round"/>
</svg>
